<svg xmlns="http://www.w3.org/2000/svg" version="1.1" viewBox="0 0 270 64">
<path d="M174.078,47.739c-4.7,0-8.642-1.591-11.825-4.774-3.183-3.183-4.774-7.154-4.774-11.912s1.591-8.729,4.774-11.912c3.183-3.183,7.125-4.774,11.825-4.774,4.816,0,8.729,1.74,11.733,5.22l-2.855,2.766c-2.173-2.706-5.133-4.06-8.878-4.06-3.48,0-6.419,1.175-8.812,3.525-2.394,2.349-3.592,5.427-3.592,9.235s1.197,6.886,3.592,9.235c2.394,2.349,5.332,3.525,8.812,3.525,3.837,0,7.107-1.546,9.815-4.64l2.857,2.855c-1.459,1.755-3.288,3.146-5.488,4.172-2.204,1.026-4.595,1.538-7.183,1.538h-.002Z" fill="#5f6368"/>
<path d="M194.185,47.025h-4.104V15.081h4.104v31.944Z" fill="#5f6368"/>
<path d="M200.889,27.775c2.11-2.215,4.803-3.325,8.075-3.325s5.961,1.11,8.073,3.325,3.17,4.989,3.17,8.321-1.057,6.104-3.17,8.32c-2.112,2.217-4.803,3.325-8.073,3.325s-5.965-1.108-8.075-3.325c-2.112-2.215-3.17-4.989-3.17-8.32s1.057-6.104,3.17-8.321ZM203.946,41.827c1.414,1.443,3.086,2.165,5.02,2.165s3.604-.722,5.018-2.165c1.414-1.441,2.12-3.354,2.12-5.732s-.706-4.291-2.12-5.734-3.086-2.165-5.018-2.165-3.606.722-5.02,2.165-2.12,3.354-2.12,5.734.706,4.291,2.12,5.732Z" fill="#5f6368"/>
<path d="M242.894,47.025h-3.924v-3.034h-.18c-.623,1.042-1.575,1.926-2.855,2.656-1.278.727-2.63,1.092-4.06,1.092-2.737,0-4.811-.832-6.225-2.498-1.414-1.664-2.118-3.897-2.118-6.692v-13.384h4.103v12.715c0,4.075,1.8,6.112,5.398,6.112,1.695,0,3.078-.685,4.151-2.052,1.071-1.368,1.604-2.945,1.604-4.729v-12.046h4.104v21.861h.002Z" fill="#5f6368"/>
<path d="M256.79,47.739c-2.826,0-5.264-1.115-7.315-3.346-2.054-2.231-3.08-4.997-3.08-8.298s1.026-6.068,3.08-8.298c2.052-2.231,4.489-3.346,7.315-3.346,1.664,0,3.16.357,4.485,1.071s2.312,1.606,2.966,2.677h.178l-.178-3.034v-10.083h4.104v31.944h-3.926v-3.034h-.178c-.654,1.071-1.643,1.963-2.966,2.677-1.325.714-2.818,1.071-4.485,1.071ZM257.458,43.991c1.934,0,3.577-.714,4.931-2.141,1.352-1.428,2.029-3.346,2.029-5.755s-.677-4.328-2.029-5.755c-1.354-1.428-2.997-2.141-4.931-2.141-1.903,0-3.538.722-4.906,2.165-1.369,1.443-2.054,3.354-2.054,5.734s.685,4.291,2.054,5.732c1.368,1.443,3.003,2.165,4.906,2.165v-.002Z" fill="#5f6368"/>
<path d="M141.277,39.935l3.982,2.642c-1.282,1.893-4.38,5.152-9.732,5.152-6.634,0-11.427-5.109-11.427-11.627,0-6.915,4.836-11.627,10.853-11.627,6.06,0,9.026,4.801,9.997,7.398l.531,1.321-15.617,6.43c1.195,2.334,3.053,3.523,5.662,3.523s4.425-1.276,5.751-3.214l-.002.002ZM129.024,35.749l10.442-4.316c-.576-1.453-2.301-2.467-4.335-2.467-2.611,0-6.236,2.291-6.106,6.783Z" fill="#ea4335"/>
<path d="M121.102,12.849v34.176h-5.133V12.849h5.133Z" fill="#34a853"/>
<path d="M112.109,25.18v20.877c0,8.587-5.086,12.112-11.105,12.112-5.662,0-9.068-3.788-10.352-6.871l4.467-1.849c.797,1.893,2.743,4.139,5.885,4.139,3.848,0,6.238-2.378,6.238-6.826v-1.674h-.178c-1.15,1.41-3.362,2.642-6.149,2.642-5.839,0-11.192-5.065-11.192-11.582,0-6.562,5.354-11.671,11.192-11.671,2.785,0,4.999,1.234,6.149,2.599h.178v-1.893h4.865l.002-.004ZM107.597,36.147c0-4.095-2.743-7.09-6.236-7.09-3.538,0-6.504,2.995-6.504,7.09,0,4.052,2.964,7.002,6.504,7.002,3.493,0,6.236-2.95,6.236-7.002Z" fill="#4285f4"/>
<path d="M86.949,36.102c0,6.694-5.169,11.627-11.512,11.627s-11.51-4.933-11.51-11.627c0-6.739,5.169-11.627,11.51-11.627s11.512,4.888,11.512,11.627ZM81.911,36.102c0-4.184-2.997-7.047-6.473-7.047s-6.471,2.863-6.471,7.047c0,4.139,2.997,7.047,6.471,7.047s6.473-2.906,6.473-7.047Z" fill="#fbbc04"/>
<path d="M61.144,36.102c0,6.694-5.169,11.627-11.51,11.627s-11.51-4.933-11.51-11.627c0-6.739,5.169-11.627,11.51-11.627s11.51,4.888,11.51,11.627ZM56.105,36.102c0-4.184-2.997-7.047-6.473-7.047s-6.473,2.863-6.473,7.047c0,4.139,2.997,7.047,6.473,7.047s6.473-2.906,6.473-7.047Z" fill="#ea4335"/>
<path d="M18.402,47.729C8.407,47.729,0,39.627,0,29.672S8.407,11.615,18.402,11.615c5.532,0,9.468,2.159,12.432,4.977l-3.495,3.48c-2.124-1.982-4.999-3.523-8.936-3.523-7.299,0-13.006,5.858-13.006,13.124s5.709,13.124,13.006,13.124c4.735,0,7.433-1.893,9.158-3.612,1.414-1.41,2.345-3.435,2.698-6.209h-11.856v-4.933h16.68c.178.881.266,1.938.266,3.082,0,3.699-1.018,8.279-4.291,11.54-3.185,3.303-7.257,5.065-12.655,5.065v-.002Z" fill="#4285f4"/>
</svg>