<svg width="271" height="40" viewBox="0 0 271 40" fill="none" xmlns="http://www.w3.org/2000/svg">
<g clip-path="url(#clip0_10272_2442)">
<path d="M21.4419 40H9.67432V26.1807H21.4419V40ZM38.5581 40H26.7905V26.1807H38.5581V40ZM12.8853 26.1758H1.11768V0H12.8853V26.1758ZM30.0005 26.1758H18.2329V0H30.0005V26.1758ZM47.1147 0V26.1758H35.3472V0H47.1147Z" fill="white"/>
<path d="M146.849 33.7921C145.616 33.7921 144.51 33.5538 143.529 33.0772C142.573 32.6007 141.806 31.9611 141.227 31.1585C140.674 30.3308 140.397 29.3777 140.397 28.2991C140.397 26.8946 140.85 25.7533 141.756 24.8755C142.661 23.9976 143.956 23.3957 145.642 23.0696L150.056 22.1666C150.936 21.9911 151.539 21.7152 151.866 21.3389C152.193 20.9627 152.357 20.4109 152.357 19.6835L152.81 24.0854L146.471 25.4398C145.616 25.6154 144.95 25.9289 144.472 26.3804C144.019 26.8319 143.793 27.4589 143.793 28.2615C143.793 29.0892 144.107 29.7539 144.736 30.2555C145.39 30.7572 146.27 31.008 147.377 31.008C148.282 31.008 149.112 30.8073 149.867 30.406C150.647 30.0047 151.25 29.4529 151.678 28.7506C152.131 28.0232 152.357 27.1955 152.357 26.2675V19.6835C152.357 18.7806 152.03 18.0783 151.376 17.5767C150.747 17.05 149.879 16.7866 148.773 16.7866C147.364 16.7866 146.283 17.1377 145.528 17.84C144.774 18.5423 144.334 19.5331 144.208 20.8122L140.888 20.3608C141.014 19.0314 141.416 17.8902 142.095 16.9371C142.774 15.9589 143.68 15.2064 144.812 14.6797C145.943 14.153 147.289 13.8896 148.848 13.8896C151.062 13.8896 152.759 14.454 153.941 15.5827C155.124 16.7113 155.715 18.1661 155.715 19.9469V33.2277H152.432V30.7822C152.105 31.6099 151.439 32.3248 150.433 32.9267C149.452 33.5036 148.257 33.7921 146.849 33.7921Z" fill="white"/>
<path d="M113.647 33.2277V14.454H116.929V16.5609C117.181 15.8335 117.734 15.2064 118.589 14.6797C119.445 14.153 120.438 13.8896 121.57 13.8896C122.677 13.8896 123.695 14.1279 124.626 14.6045C125.556 15.081 126.16 15.7959 126.437 16.749C126.764 15.8711 127.367 15.1814 128.248 14.6797C129.153 14.153 130.159 13.8896 131.266 13.8896C133.177 13.8896 134.636 14.4414 135.642 15.545C136.648 16.6486 137.151 18.2539 137.151 20.3608V33.2277H133.793V20.8122C133.793 19.5581 133.517 18.6176 132.963 17.9905C132.435 17.3384 131.656 17.0123 130.624 17.0123C129.493 17.0123 128.612 17.4136 127.983 18.2163C127.38 18.9938 127.078 20.135 127.078 21.6399V33.2277H123.72V20.8122C123.72 19.5581 123.444 18.6176 122.89 17.9905C122.362 17.3384 121.582 17.0123 120.551 17.0123C119.419 17.0123 118.539 17.4136 117.91 18.2163C117.307 18.9938 117.005 20.135 117.005 21.6399V33.2277H113.647Z" fill="white"/>
<path d="M100.808 39.9998C98.4694 39.9998 96.5705 39.4605 95.1117 38.382C93.6529 37.3035 92.7223 35.7986 92.3199 33.8673L95.6021 33.1525C95.8788 34.3815 96.4699 35.3346 97.3753 36.0118C98.2808 36.7141 99.4251 37.0652 100.808 37.0652C102.468 37.0652 103.713 36.6388 104.543 35.7861C105.399 34.9584 105.826 33.7168 105.826 32.0614V29.0892C105.449 30.0172 104.745 30.7697 103.713 31.3466C102.707 31.9235 101.576 32.2119 100.318 32.2119C98.658 32.2119 97.1992 31.8357 95.9417 31.0832C94.6841 30.3057 93.7032 29.2272 92.999 27.8477C92.2947 26.4682 91.9426 24.8755 91.9426 23.0696C91.9426 21.2386 92.2947 19.6334 92.999 18.2539C93.7032 16.8744 94.6715 15.8084 95.904 15.056C97.1615 14.2784 98.6329 13.8896 100.318 13.8896C101.576 13.8896 102.72 14.1781 103.751 14.755C104.808 15.3068 105.524 15.9965 105.902 16.8242V14.454H109.184V32.0614C109.184 33.7168 108.857 35.1339 108.203 36.3128C107.549 37.5167 106.593 38.4322 105.336 39.0592C104.103 39.6863 102.594 39.9998 100.808 39.9998ZM100.733 29.2397C102.343 29.2397 103.625 28.6754 104.581 27.5467C105.562 26.418 106.052 24.9256 106.052 23.0696C106.052 21.1885 105.562 19.6835 104.581 18.5549C103.6 17.4262 102.318 16.8618 100.733 16.8618C99.1233 16.8618 97.828 17.4262 96.8471 18.5549C95.8914 19.6835 95.4135 21.1885 95.4135 23.0696C95.4135 24.9256 95.904 26.418 96.8849 27.5467C97.8658 28.6754 99.1485 29.2397 100.733 29.2397Z" fill="white"/>
<path d="M85.1666 33.2281V14.4544H88.5243V33.2281H85.1666ZM85.1289 12.0465V6.7041H88.5621V12.0465H85.1289Z" fill="white"/>
<path d="M65.8821 33.2281V6.7041H69.4284V33.2281H65.8821ZM66.5989 22.0165V18.8186H81.0483V22.0165H66.5989ZM66.5989 9.93965V6.7041H82.4442V9.93965H66.5989Z" fill="white"/>
<path d="M171.266 33.7041L163.665 7.17522H167.653L173.11 28.6617L179.206 7.17522H182.818L188.914 28.6617L194.37 7.17522H198.359L190.758 33.7041H187.146L181.012 12.3305L174.878 33.7041H171.266ZM206.454 34.2685C204.622 34.2685 203.029 33.8546 201.675 33.0268C200.345 32.1989 199.317 31.0324 198.589 29.5272C197.887 28.022 197.535 26.2911 197.535 24.3343C197.535 22.3525 197.899 20.6215 198.627 19.1414C199.379 17.6363 200.408 16.4697 201.712 15.6419C203.042 14.7889 204.56 14.3625 206.265 14.3625C207.871 14.3625 209.301 14.7388 210.555 15.4914C211.81 16.244 212.788 17.3101 213.49 18.6899C214.218 20.0696 214.582 21.7003 214.582 23.5817C214.582 23.8577 214.569 24.1462 214.544 24.4472C214.519 24.7232 214.494 24.9239 214.469 25.0493H198.89V22.4905H212.173L211.233 23.0173C211.233 21.7379 211.007 20.6717 210.555 19.8188C210.104 18.9658 209.502 18.3261 208.749 17.8997C208.022 17.4481 207.194 17.2223 206.265 17.2223C205.237 17.2223 204.321 17.4857 203.519 18.0125C202.741 18.5143 202.126 19.1916 201.675 20.0445C201.223 20.8975 200.997 21.8382 200.997 22.8668V24.7483C200.997 26.7803 201.474 28.3858 202.427 29.5648C203.381 30.7439 204.748 31.3334 206.529 31.3334C207.633 31.3334 208.636 31.0199 209.539 30.3927C210.442 29.7404 211.057 28.8248 211.383 27.6457L214.393 28.5865C213.892 30.4178 212.926 31.8226 211.496 32.801C210.091 33.7794 208.41 34.2685 206.454 34.2685ZM222.872 34.2685C221.643 34.2685 220.539 34.0302 219.561 33.5536C218.608 33.0769 217.842 32.4372 217.265 31.6345C216.713 30.8066 216.438 29.8533 216.438 28.7746C216.438 27.3698 216.889 26.2283 217.792 25.3503C218.695 24.4723 219.987 23.8702 221.668 23.5441L226.071 22.641C226.949 22.4654 227.551 22.1894 227.877 21.8131C228.203 21.4368 228.366 20.8849 228.366 20.1574L228.818 24.5601L222.496 25.9148C221.643 26.0904 220.978 26.404 220.502 26.8555C220.05 27.3071 219.824 27.9342 219.824 28.737C219.824 29.5648 220.138 30.2296 220.765 30.7314C221.417 31.2331 222.295 31.484 223.399 31.484C224.302 31.484 225.13 31.2833 225.883 30.8819C226.66 30.4805 227.262 29.9286 227.689 29.2262C228.14 28.4987 228.366 27.6708 228.366 26.7426V20.1574C228.366 19.2543 228.04 18.5519 227.388 18.0502C226.761 17.5234 225.895 17.26 224.791 17.26C223.386 17.26 222.308 17.6112 221.555 18.3136C220.803 19.016 220.364 20.0069 220.238 21.2863L216.927 20.8348C217.052 19.5052 217.454 18.3638 218.131 17.4105C218.808 16.4321 219.711 15.6795 220.84 15.1527C221.969 14.6259 223.311 14.3625 224.867 14.3625C227.074 14.3625 228.768 14.9269 229.947 16.0558C231.126 17.1847 231.715 18.6397 231.715 20.4208V33.7041H228.441V31.2582C228.115 32.086 227.45 32.801 226.447 33.4031C225.469 33.9801 224.277 34.2685 222.872 34.2685ZM240.331 33.7041L232.617 14.9269H236.455L241.723 29.2638L247.029 14.9269H250.829L243.153 33.7041H240.331ZM259.829 34.2685C257.998 34.2685 256.405 33.8546 255.05 33.0268C253.72 32.1989 252.692 31.0324 251.964 29.5272C251.262 28.022 250.911 26.2911 250.911 24.3343C250.911 22.3525 251.274 20.6215 252.002 19.1414C252.755 17.6363 253.783 16.4697 255.088 15.6419C256.417 14.7889 257.935 14.3625 259.641 14.3625C261.246 14.3625 262.676 14.7388 263.931 15.4914C265.185 16.244 266.163 17.3101 266.866 18.6899C267.593 20.0696 267.957 21.7003 267.957 23.5817C267.957 23.8577 267.944 24.1462 267.919 24.4472C267.894 24.7232 267.869 24.9239 267.844 25.0493H252.265V22.4905H265.549L264.608 23.0173C264.608 21.7379 264.382 20.6717 263.931 19.8188C263.479 18.9658 262.877 18.3261 262.124 17.8997C261.397 17.4481 260.569 17.2223 259.641 17.2223C258.612 17.2223 257.697 17.4857 256.894 18.0125C256.116 18.5143 255.501 19.1916 255.05 20.0445C254.598 20.8975 254.373 21.8382 254.373 22.8668V24.7483C254.373 26.7803 254.849 28.3858 255.803 29.5648C256.756 30.7439 258.123 31.3334 259.904 31.3334C261.008 31.3334 262.011 31.0199 262.915 30.3927C263.818 29.7404 264.432 28.8248 264.758 27.6457L267.769 28.5865C267.267 30.4178 266.301 31.8226 264.871 32.801C263.466 33.7794 261.786 34.2685 259.829 34.2685Z" fill="white"/>
</g>
<defs>
<clipPath id="clip0_10272_2442">
<rect width="270.588" height="40" fill="white"/>
</clipPath>
</defs>
</svg>
